#!OML:ASF E:\motion texture\Top Level 1\Subject 1\Session 1\male.ASF
:FULLY-SPECIFIED
:DEGREES
223
root 0.421726 17.569 3.47065 461.36 -79.1924 -461.293
lowerback 4.06375 -0.731879 8.67816
upperback -0.831331 -0.568409 5.96282
thorax -3.17055 -0.482592 1.38104
lowerneck -17.2732 -1.27702 -3.12311
upperneck 12.5537 -1.45533 2.96779
head 6.70145 -0.592259 1.31227
rclavicle 4.02714e-016 -1.59028e-014
rhumerus -13.2224 25.3046 -89.1232
rradius 84.6235
rwrist -7.82686
rhand -8.59534 -7.95053
rfingers 7.12502
rthumb 17.3359 -37.1974
lclavicle 4.02714e-016 -1.59028e-014
lhumerus -47.1033 -12.3948 92.1826
lradius 40.9534
lwrist -4.2391
lhand -6.23759 6.89402
lfingers 7.12502
lthumb 19.6039 35.9256
rfemur -17.6731 2.7934 36.4769
rtibia 33.9451
rfoot 168.706 175.753
rtoes 19.5933
lfemur -37.7682 5.80798 -4.81304
ltibia 79.0938
lfoot 550.696 3.68174
ltoes -4.22866
224
root 0.294779 17.6086 3.46251 462.613 -78.9688 -462.721
lowerback 4.19293 -0.39497 8.975
upperback -0.778678 -0.0922301 5.85571
thorax -3.17046 -0.250768 1.07365
lowerneck -17.064 -1.48585 -3.23224
upperneck 12.6535 -1.7641 3.22401
head 6.71209 -0.726039 1.38067
rclavicle 4.72657e-015 1.59028e-014
rhumerus -10.4472 25.8597 -88.0896
rradius 85.3338
rwrist -7.34921
rhand -8.64687 -7.57738
rfingers 7.12502
rthumb 17.2863 -36.8286
lclavicle 4.72657e-015 1.59028e-014
lhumerus -48.2508 -12.2029 91.3725
lradius 40.9113
lwrist -4.44318
lhand -5.78372 6.67117
lfingers 7.12502
lthumb 20.0403 35.6577
rfemur -16.5531 2.91497 36.7294
rtibia 33.1958
rfoot 168.599 175.897
rtoes 19.6719
lfemur -41.2322 6.35258 -4.94493
ltibia 76.0746
lfoot 550.201 5.35257
ltoes -4.118
225
root 0.166548 17.6482 3.45659 463.89 -78.6899 -464.19
lowerback 4.33428 -0.0419172 9.35719
upperback -0.714333 0.410085 5.73423
thorax -3.15627 -0.0072149 0.702239
lowerneck -16.9104 -1.72472 -3.37348
upperneck 12.7543 -2.11515 3.53905
head 6.73611 -0.876303 1.46883
rclavicle 4.95409e-016 4.29375e-014
rhumerus -7.84719 26.1203 -87.063
rradius 85.9297
rwrist -7.07839
rhand -8.72136 -7.25808
rfingers 7.12502
rthumb 17.2146 -36.5156
lclavicle 4.95409e-016 4.29375e-014
lhumerus -49.3905 -12.1067 90.5291
lradius 41.0938
lwrist -4.38541
lhand -5.32838 6.50418
lfingers 7.12502
lthumb 20.4779 35.4443
rfemur -15.4013 3.04103 37.0269
rtibia 32.4339
rfoot 168.523 176.06
rtoes 19.6882
lfemur -44.6071 6.87758 -5.04753
ltibia 73.3455
lfoot 549.732 6.46418
ltoes -4.17015
226
root 0.0366079 17.6874 3.4526 465.087 -78.3689 -465.611
lowerback 4.4992 0.317409 9.80779
upperback -0.637286 0.926394 5.60176
thorax -3.13116 0.242473 0.280796
lowerneck -16.7959 -1.98821 -3.53518
upperneck 12.8434 -2.49962 3.88526
head 6.76661 -1.04068 1.56672
rclavicle 8.38623e-016 -1.74931e-014
rhumerus -5.43806 26.1443 -86.0671
rradius 86.4293
rwrist -7.10362
rhand -8.87968 -7.01447
rfingers 7.12502
rthumb 17.0623 -36.2852
lclavicle 8.38623e-016 -1.74931e-014
lhumerus -50.5038 -12.0818 89.6567
lradius 41.4519
lwrist -4.09236
lhand -4.91835 6.39131
lfingers 7.12502
lthumb 20.8719 35.2885
rfemur -14.2056 3.17974 37.361
rtibia 31.6577
rfoot 168.471 176.211
rtoes 19.6215
lfemur -47.8696 7.3586 -5.12465
ltibia 70.9022
lfoot 549.283 7.28503
ltoes -4.26384
227
root -0.0950183 17.7259 3.44979 466.152 -78.0303 -466.925
lowerback 4.68933 0.675469 10.2963
upperback -0.559542 1.44738 5.45604
thorax -3.10749 0.493876 -0.17558
lowerneck -16.6858 -2.26904 -3.71729
upperneck 12.907 -2.90816 4.26164
head 6.79352 -1.21518 1.675
rclavicle 4.60311e-015 2.14687e-014
rhumerus -3.22139 25.9976 -85.1077
rradius 86.8489
rwrist -7.45354
rhand -9.15471 -6.88705
rfingers 7.12502
rthumb 16.7975 -36.1805
lclavicle 4.60311e-015 2.14687e-014
lhumerus -51.5856 -12.1031 88.7466
lradius 41.9199
lwrist -3.65087
lhand -4.61759 6.23421
lfingers 7.12502
lthumb 21.1608 35.0994
rfemur -12.9776 3.34854 37.7123
rtibia 30.8779
rfoot 168.439 176.321
rtoes 19.4896
lfemur -51.02 7.78021 -5.193
ltibia 68.7319
lfoot 548.887 7.93329
ltoes -4.20525
228
root -0.228621 17.764 3.44709 467.058 -77.7074 -468.093
lowerback 4.88958 1.02614 10.7776
upperback -0.485661 1.96153 5.29744
thorax -3.08243 0.742364 -0.64113
lowerneck -16.58 -2.56046 -3.89425
upperneck 12.9475 -3.33007 4.62399
head 6.81636 -1.39726 1.77629
rclavicle -1.38528e-014 -2.94201e-014
rhumerus -1.1835 25.7236 -84.1731
rradius 87.1959
rwrist -8.05369
rhand -9.49229 -6.86001
rfingers 7.12502
rthumb 16.4725 -36.1807
lclavicle -1.38528e-014 -2.94201e-014
lhumerus -52.6098 -12.1614 87.8059
lradius 42.4468
lwrist -3.09514
lhand -4.43479 6.0745
lfingers 7.12502
lthumb 21.3364 34.9199
rfemur -11.7325 3.55717 38.0534
rtibia 30.0948
rfoot 168.424 176.366
rtoes 19.3033
lfemur -54.0602 8.12589 -5.27629
ltibia 66.8268
lfoot 548.535 8.46345
ltoes -3.95424
229
root -0.364197 17.8017 3.44396 467.788 -77.4326 -469.074
lowerback 5.07986 1.36244 11.2097
upperback -0.43071 2.45624 5.12676
thorax -3.06358 0.981973 -1.09104
lowerneck -16.4567 -2.85643 -4.08068
upperneck 12.9642 -3.75615 4.98365
head 6.83131 -1.58263 1.87777
rclavicle 1.48095e-014 1.86858e-014
rhumerus 0.681908 25.373 -83.2569
rradius 87.4679
rwrist -8.77168
rhand -9.89198 -6.90179
rfingers 7.12502
rthumb 16.0877 -36.254
lclavicle 1.48095e-014 1.86858e-014
lhumerus -53.5727 -12.2292 86.8329
lradius 42.9862
lwrist -2.48849
lhand -4.33376 5.90724
lfingers 7.12502
lthumb 21.4334 34.7416
rfemur -10.5026 3.8045 38.3564
rtibia 29.3156
rfoot 168.425 176.333
rtoes 19.0628
lfemur -57.0076 8.37609 -5.40298
ltibia 65.1753
lfoot 548.217 8.91353
ltoes -3.55509
